<svg width="100" height="80" viewBox="0 0 100 80" fill="none" xmlns="http://www.w3.org/2000/svg">
<path d="M0.00553011 6.70182V72.6863C-0.0330174 74.1619 0.353606 75.6194 1.12334 76.9002C1.6533 77.7626 2.39003 78.4932 3.27317 79.032C4.15632 79.5708 5.16076 79.9025 6.20429 80L94.274 79.887C94.717 79.8895 95.1516 79.7719 95.5273 79.5479C97.0323 78.7534 98.3338 77.6506 99.338 76.3189C99.7912 75.6279 100.021 74.8249 99.9985 74.0102V13.9025C100.004 13.3826 99.9241 12.865 99.7614 12.3687C99.485 11.5204 99.0279 10.7356 98.4189 10.0633C97.8098 9.39106 97.0618 8.84579 96.2217 8.46162C95.3778 8.09245 94.4571 7.9103 93.5287 7.92883L43.9049 8.0257C42.6093 8.04241 41.3411 7.66959 40.2805 6.96015L30.4743 0.502158C29.9775 0.172581 29.3858 -0.00225485 28.7806 0.00166791H6.76319C5.65401 -0.0249516 4.56214 0.267591 3.62993 0.841189C2.06359 1.87782 0.878653 3.35756 0.24264 5.07119C0.05766 5.59589 -0.0227579 6.14894 0.00553011 6.70182Z" fill="#637682"/>
<path d="M0.00282228 19.9019V74.0113C0.00282228 77.0542 1.93268 80 4.79362 80H93.7026C97.2576 80 100 78.2034 100 74.6425V46.56V18.4775C100 15.9363 96.9528 13.9131 93.5333 13.9131H5.30148C4.46239 14.015 3.65402 14.2802 2.92617 14.6921C2.19831 15.1041 1.56639 15.6543 1.06933 16.3086C0.335916 17.373 -0.0365014 18.6278 0.00282228 19.9019Z" fill="#A6B1B8"/>
</svg>
